Simulation
nRows=48
nColumns=15
endheader
time  TH_x TH_y TH_z SC_y  SC_z  SC_x  AC_y  AC_z  AC_x  GH_y  GH_z  GH_yy  EL_x  PS_y
0.0  0.000000  0.000000  0.000000  -40.97484877243665  6.293857566463187  5.290427962726946  44.18857780014494  7.3247771044168415  -0.02305897325077928  174.45086586493966  6.801306419521782  -149.16120940604222  22.660371809075603  120.000000
0.05745  0.000000  0.000000  0.000000  -38.92143257761256  5.6772689660295015  3.0197594381220023  43.431297971667554  7.5626758223192665  0.22881881419618968  170.82466715579537  3.4906442918282647  -146.85194562132875  22.071048127223513  120.000000
0.1149  0.000000  0.000000  0.000000  -37.02727922140491  4.904639358681828  0.7415959321931255  42.76107455213752  7.61438817428757  0.5242129375434144  119.6104305546363  0.576756578041359  -96.94733706171131  21.664968049606763  120.000000
0.17235  0.000000  0.000000  0.000000  -35.39373589838319  4.039153038013503  -1.4531669469715012  42.2176817394531  7.5375836350357135  0.8838907350051398  10.976038608636795  2.812316407942516  10.3675606821501  21.521396922334453  120.000000
0.2298  0.000000  0.000000  0.000000  -34.065666171537245  3.160672748974859  -3.499933044542304  41.82181218489351  7.418640925359976  1.328786848717171  6.278736495313377  5.7917437660961095  13.722367725573966  21.648384355460678  120.000000
0.28725  0.000000  0.000000  0.000000  -33.04741936926817  2.354498224248568  -5.367497075935223  41.5610828542139  7.356253242516515  1.87855368383555  4.7224942683992985  8.804925221228425  13.890031235908294  21.98166396071117  120.000000
0.3447  0.000000  0.000000  0.000000  -32.3302822476347  1.701923049487695  -7.052374474472199  41.40300691064144  7.4336066041743845  2.544956253374357  3.576430733070289  11.90402187387726  13.57285981129417  22.420758290393778  120.000000
0.40215  0.000000  0.000000  0.000000  -31.911727534051884  1.262164176579319  -8.541596723775143  41.31029080443308  7.6854744875779515  3.3133503344253414  2.45094397284372  15.147433482500652  13.134485762023479  22.854729905607122  120.000000
0.4596  0.000000  0.000000  0.000000  -31.79163528991804  1.076161435910577  -9.798660970256847  41.25507410579333  8.087436613520216  4.142017405121413  1.327040056749001  18.574764355995857  12.5836714692166  23.1905544720164  120.000000
0.51705  0.000000  0.000000  0.000000  -31.96659882126641  1.1704912674945211  -10.779288726857654  41.22280916476791  8.57717491396686  4.987471992359437  0.2549957213816222  22.186489610910076  11.8834578973096  23.367032569280802  120.000000
0.5745  0.000000  0.000000  0.000000  -32.42229056415793  1.5549357695011439  -11.456077321424898  41.216348464380594  9.091061792031132  5.8320438159506205  -0.7022757432576742  25.93935154662703  11.007740588878473  23.361538366511937  120.000000
0.63195  0.000000  0.000000  0.000000  -33.14410625153036  2.21431018356059  -11.848511490749427  41.25849539493217  9.596957141601932  6.702654924327271  -1.4656329897500306  29.767561866997102  9.926539064902315  23.184236156237997  120.000000
0.6894  0.000000  0.000000  0.000000  -34.124230182106245  3.1065911401371498  -11.997625701550096  41.390064050085115  10.079834372253154  7.639045219480238  -1.9469800561307304  33.60570677129073  8.598331997775782  22.865852393493093  120.000000
0.74685  0.000000  0.000000  0.000000  -35.3559673275702  4.167010361583434  -11.928603318903019  41.65761150625557  10.527647995182146  8.656124357500119  -2.082785018787769  37.39541161660851  6.988319194022824  22.44446552631028  120.000000
0.8043  0.000000  0.000000  0.000000  -36.8195162786878  5.326713257282623  -11.652308918140863  42.09613316438107  10.939317151006591  9.741934178919173  -1.855277879429523  41.08090423984962  5.081994743807025  21.958619172737013  120.000000
0.86175  0.000000  0.000000  0.000000  -38.47362417968183  6.517365266451696  -11.167691039570807  42.71067290928583  11.330649983433409  10.858359016785808  -1.3053381175521492  44.60725912814203  2.8992002514031494  21.44316304958401  120.000000
0.9192  0.000000  0.000000  0.000000  -40.25058861779826  7.677968437932659  -10.468267653659773  43.46923033451339  11.729605617362038  11.947408007726697  -0.5223066407762909  47.91631946670853  0.4977000194588508  20.92656441176095  120.000000
0.97665  0.000000  0.000000  0.000000  -42.05588304275935  8.762543647038171  -9.543867786223192  44.30864765972704  12.163049369313882  12.947202625246048  0.3861021608300294  50.949280233034635  -2.0335853274525673  20.42896905485501  120.000000
1.0341  0.000000  0.000000  0.000000  -43.78192830773168  9.749742322264943  -8.382859132551355  45.14804957786692  12.642989907806063  13.80538320538457  1.322808570234442  53.6554850591864  -4.580568089608085  19.961539332015725  120.000000
1.09155  0.000000  0.000000  0.000000  -45.33781672778281  10.643363422897476  -6.981108695824323  45.90653122893129  13.159843686116307  14.486259768380746  2.2139953476564234  56.00425083904434  -7.011455393576855  19.52584880743946  120.000000
1.149  0.000000  0.000000  0.000000  -46.67413249921244  11.453961833032407  -5.351809684753618  46.52129507758158  13.68676673157971  14.975985146043321  3.01247667922932  57.986787197935655  -9.194117013659715  19.118024646141347  120.000000
1.20645  0.000000  0.000000  0.000000  -47.784712772731524  12.183679357551034  -3.534713823700398  46.96537707029622  14.189101420021625  15.282767171927814  3.698245831295059  59.612208297123765  -11.02550240799073  18.733433349080553  120.000000
1.2639  0.000000  0.000000  0.000000  -48.69259250703351  12.8223616813105  -1.60082608414555  47.24815820865733  14.633759922743813  15.43033578664413  4.275850898746847  60.90401707114713  -12.458044924334473  18.372132160596948  120.000000
1.32135  0.000000  0.000000  0.000000  -49.42879983463666  13.352202173205674  0.35005132573904446  47.403930126324255  14.995184709966153  15.44811676887931  4.762407886658024  61.89540076935172  -13.508749134817826  18.03899589477774  120.000000
1.3788  0.000000  0.000000  0.000000  -50.01469287256054  13.754904142580983  2.1976461131117997  47.47696928108465  15.256336627056738  15.362369605449876  5.176279614156578  62.62362919766744  -14.247657232159305  17.742093241155636  120.000000
1.43625  0.000000  0.000000  0.000000  -50.45376076837679  14.017774082783168  3.8109357852308228  47.51134786096546  15.406252792947148  15.192116140043149  5.529820644862205  63.127135543743954  -14.772641148315355  17.49008451762943  120.000000
1.4937  0.000000  0.000000  0.000000  -50.731747258827646  14.135605648045878  5.057496615693426  47.54385492129609  15.435886850306652  14.949207805792573  5.8258234049646935  63.44569693899784  -15.18006600088859  17.290566265417453  120.000000
1.55115  0.000000  0.000000  0.000000  -50.82454188719765  14.107161195875337  5.811998388952019  47.60128009710007  15.334193848830585  14.641787648416972  6.056451618264314  63.62612312151207  -15.53909366549314  17.149315233355434  120.000000
1.6086  0.000000  0.000000  0.000000  -50.70403897208489  13.926584227451874  5.963612034273589  47.70032106286727  15.086259369039887  14.277498899758953  6.201885756113446  63.72935974588524  -15.875189546924787  17.069212950226817  120.000000
1.66605  0.000000  0.000000  0.000000  -50.354918806628795  13.585299381076757  5.450426377633583  47.83209762448239  14.693717113979098  13.88229165019321  6.247948330884923  63.76807801116612  -16.185878963649426  17.05035657059881  120.000000
1.7235  0.000000  0.000000  0.000000  -49.786540767041785  13.083030167608829  4.292493777222036  47.94936673245955  14.202597640188072  13.510922846774234  6.2034213845622865  63.64270501531759  -16.46933350362511  17.08800177159573  120.000000
1.78095  0.000000  0.000000  0.000000  -49.01718218786076  12.42040140461662  2.56824761893118  47.99012951256509  13.693649369428005  13.221576742285796  6.082922331079453  63.21574152032417  -16.719827036085064  17.16747482319319  120.000000
1.8384  0.000000  0.000000  0.000000  -48.05949355972335  11.597478509760071  0.3848430878207097  47.90034560700784  13.262222642075256  13.049897153112443  5.889939019872146  62.382730979877174  -16.92547573650134  17.263827347320134  120.000000
1.89585  0.000000  0.000000  0.000000  -46.9233536270826  10.623041539133313  -2.130349486269586  47.638118940168226  13.0051785856506  13.004150752487494  5.6223884194668186  61.0695423134402  -17.08191155582515  17.348456603047595  120.000000
1.9533  0.000000  0.000000  0.000000  -45.624196607485636  9.518835977277272  -4.842693597036259  47.17720774395594  13.001427306196062  13.06721432320397  5.28066537159717  59.23310216271025  -17.200058063150223  17.397062753397698  120.000000
2.01075  0.000000  0.000000  0.000000  -44.19606637940743  8.31911264596822  -7.622093221952489  46.51100298033939  13.293983109033288  13.206082527162938  4.8787276284921655  56.86530670795071  -17.306981041739093  17.397003770302565  120.000000
2.0682  0.000000  0.000000  0.000000  -42.70212036312028  7.066551289480888  -10.353862918445936  45.65474499481323  13.879693198120643  13.386098191690417  4.4537635468890295  53.99634380203313  -17.442782675009642  17.347385018171572  120.000000
2.1256500000000003  0.000000  0.000000  0.000000  -41.23675161211637  5.810775108030413  -12.94637985974827  44.64122525655003  14.711387230092555  13.582109783170408  4.067458607924956  50.6934894501226  -17.64995982345588  17.25406662987237  120.000000
2.1831  0.000000  0.000000  0.000000  -39.900074066884336  4.608874162946396  -15.33316973274364  43.520005018974814  15.711251282320216  13.787583606482135  3.8100624061334796  47.05136328146869  -17.964245630878573  17.12143841649918  120.000000
2.24055  0.000000  0.000000  0.000000  -38.76135188264187  3.5189047369775586  -17.47222433140783  42.35672515614796  16.784077121600465  14.008304547858215  3.794961061781583  43.17016045456382  -18.403895751746848  16.943724555557445  120.000000
2.298  0.000000  0.000000  0.000000  -37.84795651402456  2.581725038953529  -19.33929360529635  41.21483432947568  17.834971106174272  14.249093843662331  4.124408626777649  39.135092678815795  -18.948894688817138  16.705383905500966  120.000000
2.3554500000000003  0.000000  0.000000  0.000000  -37.14877098411114  1.821421822778804  -20.921737596747736  40.14861485086517  18.789478112901122  14.506730222969146  4.863509501967746  35.01672883976627  -19.538843101667748  16.384764622719413  120.000000
2.4129  0.000000  0.000000  0.000000  -36.62497035702781  1.2457564819117637  -22.212437078582678  39.20162215775545  19.60635950048082  14.771007571571513  6.033027213411349  30.88226787057894  -20.08786133178105  15.969629809019306  120.000000
2.47035  0.000000  0.000000  0.000000  -36.22789590247083  0.8441932503228843  -23.21369585976456  38.407264880471665  20.27890553765944  15.026831693185304  7.618662139273233  26.80262440260672  -20.509422097716843  15.473381340632981  120.000000
2.5278  0.000000  0.000000  0.000000  -35.91428816477716  0.582841698652289  -23.94312619375962  37.787654081830965  20.829772561570458  15.260025307627659  9.597574808970123  22.86007065144719  -20.750349807676095  14.94063921789032  120.000000
2.5852500000000003  0.000000  0.000000  0.000000  -35.658945343748336  0.40950214917795946  -24.4338503031822  37.35510012611541  21.297375827852644  15.461728616308736  11.989851951426877  19.15698831437377  -20.84209892960981  14.439291774910291  120.000000
2.6427  0.000000  0.000000  0.000000  -35.45574326133529  0.27482917731366496  -24.708667087284734  37.12168703893192  21.70592907907684  15.607666151460743  14.916247061645459  15.80339948107354  -20.962902311151055  14.040180841408946  120.000000
2.70015  0.000000  0.000000  0.000000  -35.304476172333544  0.1479863213377559  -24.77329150007524  37.08503492959775  22.055992871731203  15.66676107256368  18.624882650603368  12.882967013438074  -21.474512246314895  13.793936673607586  120.000000
